<?xml version="1.0" encoding="UTF-8"?>
<!DOCTYPE svg PUBLIC "-//W3C//DTD SVG 1.1//EN" "http://www.w3.org/Graphics/SVG/1.1/DTD/svg11.dtd">
<!-- Creator: CorelDRAW 2020 (64-Bit) -->
<svg xmlns="http://www.w3.org/2000/svg" xml:space="preserve" width="25.4mm" height="16.9332mm" version="1.1" style="shape-rendering:geometricPrecision; text-rendering:geometricPrecision; image-rendering:optimizeQuality; fill-rule:evenodd; clip-rule:evenodd"
viewBox="0 0 2540 1693.32"
 xmlns:xlink="http://www.w3.org/1999/xlink"
 xmlns:xodm="http://www.corel.com/coreldraw/odm/2003">
 <defs>
  <style type="text/css">
   <![CDATA[
    .fil0 {fill:#000000}
   ]]>
  </style>
 </defs>
 <g id="Capa_x0020_1">
  <metadata id="CorelCorpID_0Corel-Layer"/>
  <path class="fil0" d="M111.11 715.86c5.48,-7.05 -13.71,-12.12 7.58,-4.35 0.44,0.15 1.86,1.82 2.9,2.6l-10.48 1.75zm1995.17 -178.23c-0.34,-16.01 7.26,-5.55 6.47,-0.94 -1.42,8.34 -6.37,6.15 -6.47,0.94zm291.72 -49.64c9.83,-14.98 7.4,-16.44 26.2,-5.05 -2.98,7.24 -2.92,12.18 -11.37,13.96 -14.47,3.04 -12.35,-5.46 -14.83,-8.91zm-838.31 33.09c-9.4,23.17 -18.34,33.63 -32.65,55.71 -21.97,33.85 -9.61,34.19 -25.38,68.49 -17.79,-7.32 -8.81,-12.57 -41.44,-18.71 -66.88,-12.57 -8.05,-17.98 -105.53,-66.01 -19.81,-9.76 -14.18,-5.04 -23.31,-19.96 118.33,-31.23 120.12,-95.32 203.23,-71.72 -16.74,23.69 -7.72,2.23 1.34,20.79l9.1 18.3c1.05,1.19 5.13,3.66 6.26,4.7 5.62,5.15 4.43,3.63 8.38,8.41zm295.16 -68.83l-13.85 -15.81 13.85 15.81zm-1199.24 -24.92c10.46,-18.1 93.43,-69.34 117.86,-73.68 -7.23,28.05 -8.58,15.25 -24.9,34.74 -8.39,10.01 -5.55,7.94 -10.23,17.3l-12.19 16.53c-16.22,9.96 -49.66,12.29 -70.54,5.11zm695.42 -132.37c61.39,-31.62 129.47,-4.37 136,55.15 -26.66,52.24 -44.83,56.04 -104.47,82.16 -27.42,12.01 -26.11,20.01 -63.72,29.92 -25.94,6.82 -49.09,14.48 -76.93,12.01 -3.74,-27.21 16.51,-25.96 28.79,-43.72 25.64,-37.11 -7.53,-13.81 62.9,-80.22 18.99,-17.9 7.76,-31.2 17.43,-55.3zm662.36 22.07c0.11,-2.01 4.95,-7.23 6,0.84 0.58,4.37 -6.78,12.93 -6,-0.84zm-189.86 -31.58c3.66,-30.18 -5.81,-46.7 19.25,-54.64 4.49,-1.42 51.54,-11.28 53.62,-11.27 39.92,0.22 65.06,29.5 74.15,64.39 -7.21,25.3 -26.62,48.87 -40.53,61.63 -16.09,14.78 -38.92,22.24 -59.95,33.91 -37.82,20.96 -91.67,56.08 -144.25,47.2 4.28,-21.45 14.46,-20.89 24.96,-34.34 16.19,-20.77 -0.8,-36.6 72.75,-106.88zm371.39 -23.57c0.84,-14.61 4.87,-8.37 6.19,-1.45 0.99,5.11 -6.51,7.15 -6.19,1.45zm-35.11 215.08c44.17,-83.44 10.23,-66.16 42.34,-124.05 15.29,-27.57 63.76,-71.77 111.23,-142.45 20.15,-30.01 10.07,-26.4 50.66,-33.53 35.85,-6.3 22.71,-13.73 55.65,7.87 76.86,50.39 32.08,82.02 20.59,102.83l-47.21 118.2c-17.93,80.98 -62.08,95.05 -128.93,124.78 -57.95,25.77 -100.56,8.4 -104.33,-53.65zm-592.33 -209.57c13.24,-12.85 38.4,-17.51 58.34,-22.72 21.28,18.07 48.23,-2.67 134.6,2.51 -28.8,15.61 -68.7,21.05 -86.12,51.97 -13.96,24.78 -30.32,78.79 -48.48,93.51 -24.5,-9.18 -10.38,-12.01 -32.5,-21.43l6.72 28.52 -25.9 20.11c-41.24,38.26 -4.43,31.77 -63.07,32.91 1.92,-19.23 2.02,-11.42 33.99,-40.03 15.81,-14.14 23.59,-22.85 37.35,-39.89 51.52,-63.82 -14.11,-104.39 -14.93,-105.46zm-1105.15 95.11c17.9,-50.63 38.64,-76.26 81.65,-101.41 52.71,-30.85 54.83,-88.64 72.58,-109.42 27.82,-1.07 42.65,3.31 59.24,23.38 14.43,17.46 23.88,17.14 39.16,36.4 3.88,35.79 -13.34,58.07 -34.05,70.97 -21.71,13.53 -49.93,13.96 -74.16,24.82 -28.65,12.83 -58.73,45.92 -144.42,55.26zm1896.53 -222.49c12.28,-4.79 0.41,-6.39 16.01,0.66 -4.8,15.78 -1.68,14.85 -20.52,15.14l4.51 -15.8zm-2231.26 -21.53c11.09,8 22.76,1.72 42.17,-0.04 22.45,-2.04 31.16,-1.43 53.47,-7.41 31.55,-8.45 73.22,-9.57 105.46,-13.68 -9.02,15.91 -8.43,6.17 -20.47,21.09 43.59,4.47 63.48,-3.42 103.39,11.86 31.53,12.06 68.09,7.61 98.47,18.76 -138.42,15.61 -108.65,31.3 -158.81,90.21 -43.41,50.98 -52.5,88.91 -65.94,104.93 -40.92,48.74 -44.45,95.22 -120.48,77.55 -16.79,-3.91 -21.24,-6.02 -35.14,0.06l55.58 31.12c-3.72,3.4 -4.65,3.09 -10.9,5.26l-17.04 7.74 22.24 16.11c-18.14,88.01 -76.49,128.98 -109.23,210.01l11.25 16.54c-6.02,18.65 -14.63,35.75 -22.01,55.46 -8.94,23.92 -1.48,41.06 -10.25,72.73 -10.99,39.69 -47.76,94.39 -49.36,114.02 25.75,0.91 17.29,-0.28 29.36,-18.76l58.65 -89.71c8.61,6.55 10.4,8.46 23.35,11.18 35.68,-50.2 3.84,-33.03 62.23,-85.87 13.56,-12.26 51.31,-71.22 55.81,-92.14l-13.5 -21.5c7.98,-4.11 5.49,-1.2 11.24,-4.91 17.02,-11.01 20.11,-38.6 42.12,-56.3l65.55 -65.25c85.81,-3.94 95.27,-11.41 163.11,-42.42 24.27,-11.09 50.99,-17.71 76.74,-28.01 28.76,-11.51 44.76,-28.84 73.94,-17.87 -9.97,28 -7.56,35.59 10.29,59.12 -30.9,41.29 -41.91,71.95 -86.37,116.6 -49.25,49.43 -83.68,33.74 -138.59,53.96 -9.42,3.47 -6.55,3.67 -10.1,6.58 47.16,16.94 48.3,-29.59 76.91,29.09 32.33,-11.06 33.89,-22.03 71.86,-26.67 18.16,-2.21 26.39,-6.69 36.13,-15.85l26.1 -23.38c15.22,-13.15 10.32,-23.17 47.88,-51.55 111.96,-84.64 24.76,-77.07 197,-102.39 9.42,-1.38 57.78,-20.03 71.99,-25.71 26.42,-10.54 60.59,-9.9 83.89,-19.93 -66.34,-1.86 -51.2,-9.55 -100.64,-15.03 -56.32,-6.22 -39.96,20.37 -99.3,9.34 6.82,-42.77 51.49,-61.8 76.55,-91.15 22.58,-26.45 92.61,-36.37 136.38,-36.47 -1.06,1.08 -2.51,1.37 -3.11,3.3 -2.74,8.74 -20.62,11.6 -26.66,18.35l131.98 -40.49c26.7,31.06 91.88,-4.81 130.87,13.52 -37.45,17.67 -64.65,11.75 -87.11,48.38 -13.31,21.72 -37.69,74.07 -54.06,85.69 -22.04,-11.45 -9.67,-11.25 -27.34,-22.13l3.87 30.85c-26.02,5.72 -39.61,26.95 -53.75,45.04l-52.59 1.68c10.53,11.73 20.88,11.01 38.46,17.31l-13.18 6.39c28.6,17.14 5.76,0.02 15.89,23.08 8.76,19.93 5.73,2.95 16.88,23.33 -132.41,42.11 -99.63,11.62 -199.67,30.65 -33.87,6.43 -64.22,13.61 -94.32,21.13 -44.34,11.08 -62.94,-0.58 -103.85,19.5 6.9,16.74 11.56,17.26 27.47,28.65 15.27,10.93 14.41,12 28.5,27.35 93.85,-0.05 190.6,-50.12 288.94,-54.23 -1.62,48.75 -26.37,98.34 -39.5,137.15 30.04,-6.16 17.9,-19.07 38.84,-25.7 29.21,-9.22 5.87,7.31 32.25,-24.39 4.15,-5 57.03,-44.39 63.89,-61.25 1.66,-53.2 13.76,-58.22 69.28,-64.69 31.81,-3.7 69.49,25.01 91.9,37.49 22.98,12.82 42.91,4.59 96.36,35.99 26.66,15.66 11.4,15.25 45.97,21.12 27.87,4.74 37.92,-0.96 62.11,3.11 4.4,5.03 13.04,18.93 16.58,21.99 9,7.79 17.12,6.38 29.78,14.6 18.92,12.29 31.54,23.41 54.73,31.18 -0.9,-1.39 -2.16,-5.18 -2.7,-4.15 -0.51,0.99 -2.08,-3.03 -2.81,-3.82l-40.07 -37.67c8.25,-33.76 42.41,-47.61 65.4,-77.67 28.95,-37.85 -9.91,-46.69 50.06,-93.62 39.28,-4.99 90.5,30.04 120.42,45.37 32.77,16.79 45.93,1.77 119.34,46.1 24.84,15.01 35.79,9.8 60.77,21.81 15,7.21 33.51,24.71 48.24,34.73l47.64 35.31c36.13,23.75 102.96,-19.29 5.1,-82.64 -30.55,-19.77 -40.09,-46.05 -62.89,-58.59 -41.6,-22.89 -29.18,16.32 -80.84,-40.33 -19.77,-21.69 -55.39,-26.01 -79.4,-45.55 5.82,-6.63 135.12,-69.92 204.06,-145.56l6.07 35.61c0.83,32.35 -21.32,72.34 -26.07,106.73l17.75 -12.25c0.82,92.62 24.65,145.79 100.53,169.13 95.61,29.39 139,-7.85 204.6,-47.59 95.22,-57.68 206.81,-179.62 206.81,-343.22 0,-75.87 -4.36,-119.41 -52.26,-156.18 -48.25,-37.04 -74.61,-64.54 -158.4,-38.8 -70.87,21.75 -138.84,74.92 -191.26,122.7 -20.86,19.01 -18.98,34.44 -49,58.97 -25.05,-28.18 -0.84,-36.39 -72.3,-68.89 -156.52,-71.21 -418.76,78.3 -462.48,76.18 -10.19,-0.49 -36.02,-14.91 -52.02,-19.16 -131.41,-34.92 -281.34,33.93 -323.19,26.99 -19.71,-3.26 -42.19,-26.8 -93.75,-17.94 -18.05,3.1 -24.57,11.39 -43.88,11.99 -17.62,0.55 -35.82,-6.16 -55.39,-4.83l-47.16 -10.56c-0.48,-0.72 -1.63,-2.4 -2.47,-3.59 -41.25,16.76 -42.32,28.77 -55.66,12.09l21.48 -11.04 -12.52 -48.21c-1.91,-16.82 -10.54,-35.84 -22.13,-43.35 -15.6,-10.1 -23.79,-7.38 -43.78,-22.08 -13.77,-10.1 -25.35,-17.24 -41.52,-24.69 -32.21,-14.83 -170.57,-50.68 -210.02,-49.26 -35.73,1.28 -0.87,12.23 -110.43,6.54 -48.6,-2.52 -310.26,43.48 -334.26,59.72zm951.96 1152.64c2.11,-19.91 13.38,-15.64 22.91,1.82 -19.22,7.28 -8.95,6.79 -22.91,-1.82zm468.23 -187.51c-14.55,10.34 -11.4,12.38 -19.98,-5.5 20.41,-15.73 13.34,-9.07 19.98,5.5zm-219.39 -33.04c14.35,-39.84 11.99,-13.83 30.69,-35.02 20.06,-22.75 3.79,-36.3 51.07,-80.6 -1.88,-17.94 -10.57,-35.36 5.17,-45.54 17.42,-11.27 27.91,2.03 36.35,9.82 21.92,20.22 43.51,29.05 62.4,47.94 19.94,19.93 28.89,45.96 18.89,81.79 -9.47,33.93 -27.64,41.01 -52.45,58.34l-100.34 70.56c-16.6,12.2 -15.17,14.08 -28.37,26.81 -16.41,15.81 -113.91,75.37 -143.33,83.3 2.03,-30.36 3.64,-36.9 18.18,-54.14l53.66 -78.67c11.03,-14.43 16.51,-23.37 26.19,-40.08 9.14,-15.8 15.04,-25.5 21.89,-44.51zm2.64 -143.44c-0.01,-1.41 3.18,-6.57 4.5,0.7 1.7,9.35 -4.45,3.62 -4.5,-0.7zm201.22 -46.56l10.97 2.44c-21.44,18.36 -7.93,2.72 -10.97,-2.44zm-391.8 -52.81c-18.72,3.24 -9.22,-3.28 -13.07,-5.41 7.8,-6.73 -12.62,-7.12 12.96,-11.53 20.37,-3.52 8.84,3.21 13.46,6.01 -6.03,8.83 6.1,7.55 -13.35,10.93zm-46.7 -107.76l-5.67 35.69c-12.63,4.76 2.97,4.79 -17.82,-3.45 -23.35,56.89 -91.43,193.44 -98.51,226.14 -40.22,185.86 -30.23,84.2 -69.46,179.25 -7.38,17.9 -14.03,40.12 -26.53,54.96 -15.81,-21.98 -23.15,-131.63 -42.77,-176.26 -18.36,-41.75 -29.8,-30.48 -17.33,-81.5 8.22,-33.57 24.53,-55.57 28.86,-82.27 -18.92,11.89 -9.63,12.22 -29.43,24.65l-18.33 -6.79 1.85 -32.92c-24.69,1.88 -18.1,7.03 -23.04,31.03 -53.75,32.75 8.21,-3.79 -53.61,44.76 -20.96,16.46 -33.43,26.12 -43.61,56.37 -10.81,32.17 -46.58,116.4 -50.66,147.05 33.43,18.13 30.27,2.63 31.92,38.01 -23.22,21.89 -30.08,2.71 -44.55,37.76 -13.23,32.04 -17.55,30.15 -31.94,51.08 -2.7,24.03 0.88,24.17 -4.24,50.51 -4,20.58 0.15,27.63 -5.55,49.9 -6.77,26.44 -21.36,60.32 -22.75,86.17 14.13,-11.69 35.27,-59.57 44.94,-81.22l17.8 2c16.34,-23.87 23.75,-32.1 38.18,-50.31 25.92,-32.69 17.53,-32.66 20.74,-73.6l54.61 -75.63c15.52,13.81 29.57,64.72 37.54,87.29 15.71,44.5 34.9,50.32 48.08,82.09l-11.51 22.3c8.37,7.03 6.23,3.14 8.63,16.31 -19.19,17.44 -25.37,6.65 -17.76,33.07 16.35,-6.57 17.97,-9.02 28.77,-22.2 34.65,0.94 51.07,11.22 82.08,-11.58 68.33,-50.26 55.3,-66.66 84.33,-136.14 13.33,-31.9 8.75,-54.06 21.41,-88.78l78.03 -198.15c0.96,-3.5 -11.48,-70.61 26.45,-118.13l37.96 12.7c0.54,0.93 1.97,3.03 2.48,3.87 8.66,14.33 94.4,8.53 145.79,30.16 -5.19,31.18 -15.04,37.05 -29.8,56 -19.16,24.6 -3.61,34.16 -36.47,57.24 -49.62,34.85 -36.81,48.49 -50.01,66.05 -29.25,38.92 -9.19,29.21 -26.27,45.24 -12.44,11.69 -11.76,1.09 -21.76,22.63 -37.21,80.05 -33.46,23.33 -60.91,82.38l-67.56 122.79c17.96,-6.52 22.18,-16.91 43.48,-9.96l-7.62 48.63c-10.51,25.41 -94.57,54.21 -142.58,88.72l-189.18 97.49c-14.51,8.43 -7.19,4.52 -14.31,12.55 55.23,-9.61 135.32,-57.5 160.01,-59.06 -3.83,4.33 -8.24,10.19 -12.47,17 39.87,-7.91 22.78,-21.12 70.1,-31.84 30.08,-6.81 50.08,-17.67 83.63,-20.87 -2.8,26.76 -25.28,46.46 -34.04,73.6 30.76,-17.56 30.82,-40.05 50.48,-51.66 21.33,-12.6 7.59,5.65 34.75,-15.17 11.23,-8.62 23.73,-13.14 32.8,-22.25 24.59,-24.71 12.72,-25.62 54.97,-44.56 38.1,-17.06 30.69,-23.74 49.17,-54.86 28.39,-5.11 27.16,7.54 50.5,-4.98 61.81,-33.18 117.85,-51.84 136.19,-62.66 99.18,-58.44 247.1,-131.6 275.46,-254.1 17.44,-75.32 49.12,-64.13 -62.16,-174.04 -19.2,6.92 2.98,2.31 -20.39,8.94 -13.53,-32.13 9.44,-22.23 -30.48,-41.05 -55.75,-26.29 -44.04,-19.07 -55.47,-80.42 -16.77,9.76 -12.13,10.8 -15.85,31.59 -50.95,3.52 12.27,12.38 -80.2,2.53 -104.66,-11.14 -169.63,8.5 -279.13,13.08 2.33,-19.73 9.29,-48.47 14.83,-68.36 6.52,-23.41 16.69,-31.08 18.43,-37.23 6.52,-22.87 0.02,-9.06 -2.31,-14.36l-19.79 20.16c-5.99,5.31 -15.88,11.25 -21.42,16.62zm907.41 488.41c11.05,-26.95 19.58,-12.17 28.91,-47.93 18.85,-72.29 18.21,-93.88 84.01,-142.18 60.65,-44.52 87.76,-89.32 117.38,-114.25 19.36,-16.3 13.27,-5.8 27.5,-10.36 17.18,-5.53 4.08,-4.09 24.77,-14.38l11.31 17.61c31.76,0.26 33.26,8.3 48.84,23.59 12.5,12.29 23.04,21.11 34.42,37.37 43.01,61.48 3.26,87.85 -4.98,99.03 -9.07,12.32 -20.2,48.33 -53.1,90.36 -32.57,41.63 -27.89,44.74 -33.11,104.59 -18.76,-2.23 -8.77,-2.52 -29.03,-6.13 -7.99,13.34 -39.97,35.58 -59.22,38.47 -75.17,11.28 -196.48,41.73 -197.7,-75.79zm91.26 -214.17l4.65 -2.64c0.07,-0.91 -1.76,1.73 -4.65,2.64zm-79.25 -45.05c-7.29,5.52 14.71,12.86 -15.1,4.12 4.29,-18.58 14.31,-4.42 15.1,-4.12zm203.11 -164.8c8.09,-7.77 -11.6,-8.41 14.05,-10.43 -6.18,12.83 2.13,6.13 -14.05,10.43zm-347.43 202.72c6.93,78.31 -34.52,26.28 -2.05,83.42 -9.43,32.87 -37.47,87.43 -37.78,120.49 1.53,-1.01 5.97,-3.74 7.04,-4.39l12.73 -7.74c-9.92,91.26 -28.56,135.62 47.25,178.99 46.2,4.07 100.41,-17.58 143.39,-15.96 25.52,18.38 35.66,56.16 71.69,60.95 23.02,-11.56 19.02,-20.75 43.31,-35.42 122.54,-73.99 111.59,-15.5 180.87,-23.74 14.89,-21.22 17.16,-64.17 31.69,-94.83 22.86,-48.25 29.28,-33.43 76.35,-49.6 12.39,-93.94 -8.95,-158.15 65.26,-199.09 -0.24,-61.66 -60.8,-158.61 -88.96,-194.08 -40.14,-50.56 -133.95,-71.5 -220.55,-49.81 -31.54,7.9 -203.82,84.83 -224.2,122.8 -15.86,29.57 -8.71,13.99 -35.98,35.66 -29.6,23.53 -42.75,47.98 -70.06,72.35zm-1673.06 331.6c-0.08,-1.02 1.8,-7.29 3.84,0.5 2.93,11.23 -3.64,1.83 -3.84,-0.5zm231.72 -151.61c8.55,7.97 3.66,1.82 8.8,15.3 -17.73,-4.08 -25.54,-0.95 -8.8,-15.3zm97.83 -107.61c19.7,-14.4 4.69,-3.45 9.95,0 -4.32,2.07 5.92,12.45 -9.95,0zm-281 245.54c14.18,-23 25.61,-49.11 39.92,-75.86 88.81,-166.17 189.24,-305.3 311.45,-444.2 11.08,-12.61 17.5,-18.95 33.72,-14.52 1.86,12.93 -9.3,23.81 -18.74,35.03 -57.21,67.89 -362.66,497.31 -366.35,499.55zm201.24 -419.04c-12.65,-13.5 -13.54,-37.59 -19.65,-53.23 -23.31,4.84 -18.84,4.85 -31.35,21.3 -35.91,47.2 -85.66,78.78 -112.86,162.87 -10.36,32.02 -7.64,66.48 -16.67,92.11 -10.98,-7.54 -3.57,6.88 -10.54,-11.93 -0.14,-0.37 -2.75,-15.08 -3.68,-18.66 -15.25,28.13 2.36,38.84 -24.26,65.34l-8.05 3.56c-5.1,1.69 -7.61,1.61 -12.88,3.71 -9.05,3.62 -10.02,3.61 -15.42,11.4 -31.65,45.63 -19.81,122.16 -23.23,142.24 -19.53,-3.59 -13.03,-10.73 -30.25,-1.94 -15.85,44.15 35.99,110.32 -18.08,196.37 -21.43,34.1 -66.53,118.23 -74.21,162.02 14.35,-5.43 6.85,2.33 16.42,-15.78l85.9 -167.77c44.67,-81.15 140.77,-3.32 185.73,-62.32 9.06,-11.9 9.59,-13.63 14.91,-27.49l-40.63 6.26c8.32,-20.82 2.44,-12.4 49.95,-42.97 20.87,-13.43 35.46,-17.17 62.57,-25.7 37.1,-11.67 91.54,-83.93 93.65,-89.47 4.34,-17.28 -1.53,-20.96 10.16,-44.01 8.28,-16.35 13.81,-16.45 14.48,-36.54 -27.14,2.88 -44.15,25.13 -68.93,14.43 -3.2,-33.86 19.27,-20.96 68.44,-62.78 19.43,-16.52 55.45,-44.7 61.91,-75.48 -26.91,-3.48 -26.09,2.09 -35.31,-16.15 17.23,-30.72 52.96,-24.61 63.99,-49.39l52.91 -177.34c5.43,-35.03 6.33,-52.73 -3.99,-76.58 -9.61,-22.24 -2.72,-5.34 -3.55,-24.31 -1.65,-38.04 -50.49,12.47 -61.34,19.53 -29.95,19.46 -53.95,10.29 -88.19,27.78 -62.8,32.1 -42.34,123.37 -77.95,150.92zm1017.08 600.57c19.07,-8.86 4.24,3.66 19.75,-13.88l44.94 -54.3c14.6,2.87 6.2,1.22 22.26,5.89 20.21,-50.29 35.98,-12.36 85.96,-112.56l103.48 -161.06c7.98,-14.63 15.22,-38.52 22.29,-49.43 12.56,-19.37 17.41,-11.63 29.23,-36.87 7.55,-16.12 14.27,-30.44 22.51,-43.59 56.13,-89.62 42.2,-14.7 91.02,-173.83l29.86 -107.33c-37.19,8.19 -5.05,18.03 -45.07,26.89 -40.37,8.94 -23.23,-3.56 -56.2,20.2 -53.06,38.23 -36.81,24.82 -68.42,85.96 -27.16,52.53 -5.14,49.13 -50.08,98.7 -24.04,26.5 -60.59,136.79 -70.82,155.1 -30.98,55.4 -9.63,21.56 -22.81,54.89 -10.77,27.24 -40.79,69.1 -56.25,97.95l-41.09 107.74c-16.58,30.18 -51.17,72.79 -60.56,99.53zm-421.82 -1028.2c4.88,3.54 -10.99,5.87 11.7,6.3 17.12,0.34 10.63,-3.34 13.96,-6.3 -13.22,-10.19 -11.02,-7.7 -25.66,0zm1051.58 535.88c2.89,-0.91 4.72,-3.55 4.65,-2.64l-4.65 2.64zm-237.58 -521.99l-13.85 -15.81 13.85 15.81z"/>
 </g>
</svg>
